<svg id="Layer_1" data-name="Layer 1" xmlns="http://www.w3.org/2000/svg" viewBox="0 0 180.21 62.8"><defs><style>.cls-1{fill:#c40d3c;}</style></defs><path d="M284.44,209.32c.7.19,1.42.28,1.42.8s-.57.59-.93.59c-.57,0-1.06-.25-1.06-.88h-1c0,1.18,1,1.7,2,1.7,1.31,0,2-.66,2-1.53,0-1.09-1.08-1.31-1.42-1.4-1.21-.31-1.43-.36-1.43-.72s.39-.55.72-.55c.5,0,.91.15.95.73h1c0-1.11-.92-1.55-1.92-1.55S283,207,283,208,283.72,209.14,284.44,209.32Z" transform="translate(-211.58 -206.51)"/><rect x="75.92" y="0.11" width="1.05" height="4.79"/><polygon points="80.89 4.9 81.94 4.9 81.94 0.11 80.96 0.11 80.96 3.33 80.94 3.33 78.94 0.11 77.9 0.11 77.9 4.9 78.88 4.9 78.88 1.7 78.9 1.7 80.89 4.9"/><path d="M294.11,209a2.31,2.31,0,0,0,2.35,2.49,2,2,0,0,0,2.11-2h-1a1.08,1.08,0,0,1-1.09,1.08c-.94,0-1.3-.81-1.3-1.61s.36-1.64,1.3-1.64a1,1,0,0,1,1.05.84h1a2,2,0,0,0-2.07-1.73A2.32,2.32,0,0,0,294.11,209Z" transform="translate(-211.58 -206.51)"/><polygon points="91.21 4.9 91.21 4.02 88.63 4.02 88.63 2.84 90.95 2.84 90.95 2.03 88.63 2.03 88.63 1 91.15 1 91.15 0.11 87.57 0.11 87.57 4.9 91.21 4.9"/><path d="M306.78,206.72c-.1.72-.71.95-1.38.93v.72h1.18v3h.95v-4.7Z" transform="translate(-211.58 -206.51)"/><path d="M308.25,207.91a.93.93,0,0,0,.69,1v0a1.11,1.11,0,0,0-.88,1.15c0,1,.88,1.47,1.78,1.47A1.58,1.58,0,0,0,311.6,210a1.1,1.1,0,0,0-.88-1.15v0a1,1,0,0,0,.69-1,1.4,1.4,0,0,0-1.57-1.26A1.43,1.43,0,0,0,308.25,207.91Zm2.4,2.09a.77.77,0,0,1-.81.79A.79.79,0,0,1,309,210a.75.75,0,0,1,.83-.75A.76.76,0,0,1,310.65,210Zm-.11-2a.62.62,0,0,1-.7.61c-.39,0-.72-.2-.72-.61a.65.65,0,0,1,.72-.65A.62.62,0,0,1,310.54,208Z" transform="translate(-211.58 -206.51)"/><path d="M312,209.08c0,1.19.38,2.43,1.8,2.43a1.64,1.64,0,0,0,1.65-1.72,1.66,1.66,0,0,0-.36-1,1.5,1.5,0,0,0-1.08-.49,1.19,1.19,0,0,0-1.06.53l0,0c0-.52.21-1.42.9-1.42a.66.66,0,0,1,.63.58h.91a1.43,1.43,0,0,0-1.53-1.3C312.48,206.63,312,207.94,312,209.08Zm2.5.79a.8.8,0,0,1-.72.86.81.81,0,0,1-.76-.88.78.78,0,0,1,.76-.87C314.24,209,314.47,209.43,314.47,209.87Z" transform="translate(-211.58 -206.51)"/><path d="M316,207.91a.93.93,0,0,0,.69,1v0a1.11,1.11,0,0,0-.88,1.15c0,1,.88,1.47,1.78,1.47a1.58,1.58,0,0,0,1.76-1.47,1.1,1.1,0,0,0-.88-1.15v0a1,1,0,0,0,.68-1,1.4,1.4,0,0,0-1.57-1.26A1.42,1.42,0,0,0,316,207.91Zm2.4,2.09a.77.77,0,0,1-.81.79.79.79,0,0,1-.83-.79.75.75,0,0,1,.83-.75A.76.76,0,0,1,318.38,210Zm-.11-2a.72.72,0,0,1-1.42,0,.65.65,0,0,1,.71-.65A.62.62,0,0,1,318.27,208Z" transform="translate(-211.58 -206.51)"/><path d="M279,236.39l.13.65h.8V234h-2.4v.94h1.27a1.25,1.25,0,0,1-1.37,1.23c-1.13,0-1.55-1-1.55-1.92s.42-2,1.55-2a1.17,1.17,0,0,1,1.21,1h1.21a2.31,2.31,0,0,0-2.42-2,3,3,0,0,0,0,6A1.93,1.93,0,0,0,279,236.39Z" transform="translate(-211.58 -206.51)"/><path d="M280.49,234.2a2.82,2.82,0,1,0,2.82-3A2.77,2.77,0,0,0,280.49,234.2Zm4.38,0c0,1-.43,1.92-1.56,1.92s-1.56-1-1.56-1.92.43-2,1.56-2S284.87,233.2,284.87,234.2Z" transform="translate(-211.58 -206.51)"/><polygon points="76.5 24.8 75.24 24.8 75.24 30.53 79.29 30.53 79.29 29.47 76.5 29.47 76.5 24.8"/><path d="M294.05,237c1.75,0,2.6-1.23,2.6-2.89a2.51,2.51,0,0,0-2.6-2.83h-2.47V237Zm-1.21-1v-3.61h.9c1.25,0,1.65.73,1.65,1.89S294.69,236,294,236Z" transform="translate(-211.58 -206.51)"/><polygon points="93.16 30.53 94.34 30.53 94.34 24.8 92.57 24.8 91.3 28.74 91.28 28.74 89.94 24.8 88.17 24.8 88.17 30.53 89.35 30.53 89.35 26.51 89.37 26.51 90.77 30.53 91.74 30.53 93.14 26.47 93.16 26.47 93.16 30.53"/><polygon points="99.63 30.53 99.63 29.47 96.55 29.47 96.55 28.07 99.32 28.07 99.32 27.09 96.55 27.09 96.55 25.86 99.57 25.86 99.57 24.8 95.29 24.8 95.29 30.53 99.63 30.53"/><path d="M314.54,237c1.75,0,2.6-1.23,2.6-2.89a2.51,2.51,0,0,0-2.6-2.83h-2.47V237Zm-1.21-1v-3.61h.9c1.25,0,1.65.73,1.65,1.89s-.7,1.72-1.43,1.72Z" transform="translate(-211.58 -206.51)"/><path d="M321.38,237h1.31l-2.14-5.72h-1.3L317.08,237h1.28l.45-1.27H321Zm-2.25-2.21.75-2.1h0l.72,2.1Z" transform="translate(-211.58 -206.51)"/><polygon points="111.6 24.8 111.6 30.53 115.65 30.53 115.65 29.47 112.86 29.47 112.86 24.8 111.6 24.8"/><path d="M328.49,233.28v-.6h.22l.28.6h.34l-.32-.65a.37.37,0,0,0,.32-.39c0-.25-.2-.38-.6-.38h-.55v1.42Zm0-.78v-.45h.18c.23,0,.34.07.34.23s-.1.22-.33.22Z" transform="translate(-211.58 -206.51)"/><path d="M327.38,232.58a1.35,1.35,0,1,0,1.35-1.35A1.35,1.35,0,0,0,327.38,232.58Zm2.39,0a1,1,0,1,1-1-1.05A1,1,0,0,1,329.77,232.58Z" transform="translate(-211.58 -206.51)"/><path d="M348.75,214.19a1.29,1.29,0,0,0,.67.85.27.27,0,0,1-.06.47c-.26.12-.11.34,0,.29a1.81,1.81,0,0,0,1.08-.81,1.84,1.84,0,0,0,.45-1.12,1.25,1.25,0,0,0-.35-.86,1,1,0,0,0-1.06-.22A1.27,1.27,0,0,0,348.75,214.19Z" transform="translate(-211.58 -206.51)"/><path d="M303.18,216.83a1.6,1.6,0,1,0-1.6-1.6A1.6,1.6,0,0,0,303.18,216.83Z" transform="translate(-211.58 -206.51)"/><path d="M346.26,213.63a1.6,1.6,0,1,0,1.6,1.6A1.6,1.6,0,0,0,346.26,213.63Z" transform="translate(-211.58 -206.51)"/><path d="M340.43,227.23a3.17,3.17,0,0,0,.35,1.3,2.21,2.21,0,0,0,2.46.7c2.15-.59,2.86-1.77,3-1.55.75,1.13,2.1,1.58,3.81,1.46a3.78,3.78,0,0,0,3.33-2.67,9.65,9.65,0,0,0-.15-5.16c-.19-.58-.39-1.17-.56-1.76a3.28,3.28,0,0,1-.23-1.54,1.27,1.27,0,0,1,.06-.18.56.56,0,0,1,.1-.15l.18-.23a1.92,1.92,0,0,0,.37-1,1.4,1.4,0,0,0-.24-1,1,1,0,0,0-1.26-.09c-1.07.68-1.11,2.29-1.13,3.3-2.68,4.92-5,7.82-6,8.35a.73.73,0,0,1-.59.13.46.46,0,0,1-.25-.37,2.72,2.72,0,0,1,.36-1.59c.2-.52.41-1,.62-1.56.48-1.2,1-2.39,1.47-3.58.32-.78.64-1.56,1-2.32h-2.91c-.44,1-.86,1.9-1.27,2.82a18.12,18.12,0,0,1-3.58,5.58,3.22,3.22,0,0,1-2.19,1.14.77.77,0,0,1-.53-.22,1.43,1.43,0,0,1-.23-1.07,4.22,4.22,0,0,1,.29-1.41,26.71,26.71,0,0,0,5.5-7.31,10.46,10.46,0,0,0,1-2.87c.14-.9,0-2.24-1.2-2.21s-2.69,1.34-3.59,2.4a28.21,28.21,0,0,0-5.1,9.6,11.6,11.6,0,0,1-1.61,1.95,3.24,3.24,0,0,1-2.2,1.14A.81.81,0,0,1,329,227a1.42,1.42,0,0,1-.22-1.07,4.22,4.22,0,0,1,.29-1.41,26.71,26.71,0,0,0,5.5-7.31,10.43,10.43,0,0,0,1-2.87c.14-.9,0-2.24-1.19-2.21s-2.7,1.34-3.59,2.4a28,28,0,0,0-5.18,9.86c0,.05,0,.1,0,.15l-1,.82s-2.4,2.17-4,1.78a1.4,1.4,0,0,1-1-.9c2-1.11,4.49-3,5-5.07,1.1-4.32-3.56-4.11-6-1.6a7,7,0,0,0-2.19,6.52c-.28.13-.52.25-.74.34l-.57.24a6.12,6.12,0,0,1-.69.22h-.06c-.62.06-.86-.62-.74-1.28a13.28,13.28,0,0,1,.83-2.52l.81-2a4.75,4.75,0,0,0,.51-2,1.42,1.42,0,0,0-.34-.9,1.51,1.51,0,0,0-.66-.41c-1.54-.49-2.75.71-3.77,1.67a2.42,2.42,0,0,1-.43.36,2.28,2.28,0,0,0-.06-.62,2.91,2.91,0,0,0-.17-.72,1.59,1.59,0,0,0-.78-.92,1.68,1.68,0,0,0-.86-.11,3.78,3.78,0,0,0-2.44,1.63,19.1,19.1,0,0,0-1.48,2.46,34,34,0,0,1-1.81,3.08A12.7,12.7,0,0,1,301.1,227a.57.57,0,0,1-.26.15.39.39,0,0,1-.38-.21.77.77,0,0,1,0-.45,14.24,14.24,0,0,1,1.4-4.2c.62-1.41,1.28-2.8,2-4.59H301c-.42,1-1.87,4.16-3,6.16a7.44,7.44,0,0,1-1.4,1.76,5,5,0,0,1-1.83,1.31.92.92,0,0,1-1-.26.88.88,0,0,1-.14-.59,5.82,5.82,0,0,1,.32-1.28l.86-2h0l1.76-4.16h1.64L299,217h-1.65l1.41-3.33h-2.91L294.47,217h-1.63l-.71,1.66h1.64l-1.33,3.14c-1.29,2.75-2.71,5-3.71,5.09-.61.06-.86-.61-.73-1.28.36-2.12,1.73-4.57,2.85-6.63.08-.17-1.09-1.34-1.09-1.34-1.21,1.21-3.6.75-3.39.38.54-.94.84-1.76.39-2.49-.53-.88-2,.26-2.44.82a4.09,4.09,0,0,0-.59,2.55,3.82,3.82,0,0,0,.41,1.29c-2.73,5.61-3.46,6-4.24,6.56-.57.4-1.53.35-1.26-.23,1.07-2.28,2.4-5.8,3.39-8.5h-2.88c-.13.32-.09.66-.25.51-2-1.85-4.8.52-6.08,2.13a16.15,16.15,0,0,0-2.14,3.6,6.11,6.11,0,0,1-1.07,1.83A3,3,0,0,1,268,227.2a.56.56,0,0,1-.44-.07.61.61,0,0,1-.21-.58c.09-.86,3.51-8.72,4.16-10.41a4.08,4.08,0,0,0,.23-2.51,2,2,0,0,0-1.88-1.32,4.11,4.11,0,0,0-2.7,1.68s-.18.18-.24.06a2.06,2.06,0,0,0-.71-1.85,2,2,0,0,0-2.11-.17,6.07,6.07,0,0,0-2.09,1.54c-.25.24-.47.53-.43.26.25-1.82.14-3.52-1.13-4.63-3.22-2.79-8-1.14-10.32,1.93a8.17,8.17,0,0,0-1.62,3.43,3.84,3.84,0,0,0,4.5,4.93,4.6,4.6,0,0,0,1.31-.44,6.24,6.24,0,0,0,3.11-3.75l-1.79-1.88a6.05,6.05,0,0,1-1.09,2.34,3.46,3.46,0,0,1-2,1.45,1.42,1.42,0,0,1-1.68-1.58,5.77,5.77,0,0,1,1.69-3.24,6.74,6.74,0,0,1,3.17-2,2.93,2.93,0,0,1,3,.69,3,3,0,0,1,.31,2.42,22.07,22.07,0,0,1-.86,3l-4.81,12.14h3.13s4.72-12.51,6.56-14.35c.38-.39.61-.5.61,0,0,1.45-2.25,6.45-3.3,9.53-.49,1.48-1.24,3.13-1.82,4.85h2.94a9,9,0,0,0,.47-1.21l.49-1.26a70.58,70.58,0,0,1,3.92-9.42,8,8,0,0,1,1.91-2.4c.14-.11.43-.16.46.16.06.84-3.6,9-4.09,10.91a4.53,4.53,0,0,0,0,2.82c1.1,2.21,3.92.7,5.09-.57.18-.19.34-.38.51-.57s.28-.31.4,0a2.85,2.85,0,0,0,.38.81c1.15,1.56,3.77,1.12,4.81-.35,0,0,.73,1.26,1.73,1.41,2.55.38,4.31-1.19,5.42-3s2-4.23,2.43-5.06c.08-.18.16-.15.78-.14.45,0,.95.07.84.31-.47.93-1,1.84-1.38,2.79a6.69,6.69,0,0,0-.82,3.29,2.09,2.09,0,0,0,1.13,1.7,2.11,2.11,0,0,0,1.14.14,4.59,4.59,0,0,0,3-1.76c.38-.47.44-.57.51-.32a3,3,0,0,0,.53,1.38,2.05,2.05,0,0,0,1.28.74,3.52,3.52,0,0,0,1.69-.27,7.38,7.38,0,0,0,3.08-2,.12.12,0,0,1,.08-.06c.05.12,0,.28.08.41s.1.41.17.61a2.08,2.08,0,0,0,.66,1,2,2,0,0,0,1,.38,3,3,0,0,0,1.66-.24,5,5,0,0,0,1.46-1.28,21.82,21.82,0,0,0,1.59-2.13c1.06-1.56,1.91-3.17,2.87-4.8a3.8,3.8,0,0,1,.67-.88.79.79,0,0,1,.36-.19c.5,0-.12,1.11-.18,1.29-.19.51-.41,1-.61,1.5-.35.9-.78,1.79-1.08,2.7-.49,1.2-1,2.4-1.49,3.6v0h3s2.24-7.16,4.79-8.61c.12-.07.39-.22.47,0a.74.74,0,0,1-.1.56l-.3.69c-.19.44-.38.89-.56,1.35-.31.76-.62,1.52-.91,2.28a4.92,4.92,0,0,0-.37,2.3,2.1,2.1,0,0,0,1.12,1.71,1.82,1.82,0,0,0,.69.15c1,.17,3-.64,4.7-1.42a3.11,3.11,0,0,0,2.28,1.39c2.63.39,5.55-2.27,5.55-2.27l.63-.5a1.55,1.55,0,0,0,0,.18,3.27,3.27,0,0,0,1,2.29,2.71,2.71,0,0,0,1.27.43,4.77,4.77,0,0,0,3.37-1,11,11,0,0,0,2-1.71h0a3.27,3.27,0,0,0,1,2.29,2.75,2.75,0,0,0,1.28.43,4.76,4.76,0,0,0,3.36-1,11.22,11.22,0,0,0,1.6-1.32A2.26,2.26,0,0,0,340.43,227.23Zm7.77-.18a3.89,3.89,0,0,1,1-1.92l-.63-.48a33.89,33.89,0,0,0,2-3.1c.27-.54.4.15.36.27a5.9,5.9,0,0,1-1.56,5.48c-.19.17-.6.37-.78.3S348.2,227.38,348.2,227.05Zm-10.68-5.32c-.42-.69,3.34-7.54,4.18-8,.16-.09.2,0,.19.29a5.88,5.88,0,0,1-.41,1.53,16.42,16.42,0,0,1-1.18,2.51c-.46.82-1,1.62-1.47,2.41C338.76,220.57,337.73,222.08,337.52,221.73Zm-7.64,0c-.42-.69,3.34-7.54,4.18-8,.16-.09.2,0,.18.29a5.85,5.85,0,0,1-.4,1.53,17.42,17.42,0,0,1-1.18,2.51c-.46.82-1,1.62-1.48,2.41C331.12,220.57,330.09,222.08,329.88,221.73Zm-9.34-.66c1-1.16,1.69-1.18,2-1s.53.68-.16,1.81a7.18,7.18,0,0,1-3,2.77A5.39,5.39,0,0,1,320.54,221.07Zm-47.14,3.68a9.13,9.13,0,0,1,3.47-5.07c.85-.56,1.63-.19,1.52.22a43.35,43.35,0,0,1-2.11,5,3.77,3.77,0,0,1-2.11,2.11C273.16,227.39,273,226,273.4,224.75Z" transform="translate(-211.58 -206.51)"/><path class="cls-1" d="M211.58,262.27h2.49V249.19h-2.49v-2.35H221v2.35h-2.49v13.08H221v2.35h-9.38Z" transform="translate(-211.58 -206.51)"/><path class="cls-1" d="M240.73,251.71c2.64,0,3.72,1.83,3.72,4.45v6.21h1.84v2.25h-7.13v-2.25h1.35V256.7a2.67,2.67,0,0,0-.57-1.94,1.49,1.49,0,0,0-1.13-.41c-1.14,0-2.3,1.27-2.3,3.08v4.94h1.3v2.25h-6.59v-2.25h1.35V256.7a2.71,2.71,0,0,0-.59-1.94,1.46,1.46,0,0,0-1.11-.41c-1.14,0-2.3,1.27-2.3,3.08v4.94h1.3v2.25h-7.1v-2.25h1.86v-8.15h-1.86V252h5.56v3.32c.89-2.13,2.27-3.59,4.46-3.59s3.29,1.27,3.56,3.35C237.27,253,238.62,251.71,240.73,251.71Z" transform="translate(-211.58 -206.51)"/><path class="cls-1" d="M247.48,261.51a3.08,3.08,0,0,1,.89-2.19c.84-.83,2.13-1.37,5.24-1.78,1.49-.22,1.62-.24,1.62-.57v-1.1c0-1.62-.76-2.22-2.32-2.22a4.15,4.15,0,0,0-1.62.33,1.61,1.61,0,0,1,.65,1.37A1.77,1.77,0,0,1,250,257a1.86,1.86,0,0,1-2.05-1.89c0-2.33,2.88-3.43,6-3.43,3.81,0,5.16,1.78,5.16,4.4v5.75c0,.62.24.76.67.76s.6-.3.84-1.22l1.33.43c-.52,2.08-1.52,3-3.33,3a2.77,2.77,0,0,1-3-2.67h-.13a4.19,4.19,0,0,1-4.19,2.67C249.1,264.86,247.48,263.56,247.48,261.51Zm7.75-1.7v-1.24c-.24.05-.54.08-1.21.21-1.92.33-2.52,1-2.52,2.16a1.52,1.52,0,0,0,1.68,1.62C254.39,262.56,255.23,261.43,255.23,259.81Z" transform="translate(-211.58 -206.51)"/><path class="cls-1" d="M268.28,259.81c-.54,0-1.25-.06-1.73-.06-.79,0-1.3.41-1.3.9s.51.89,1.95.89h3.48c3.32,0,4.67,1.37,4.67,3.37,0,2.54-2.29,4.41-7.78,4.41-4.1,0-5.94-1.08-5.94-2.76,0-1.27,1.08-2.16,3-2.4V264c-1.54-.32-2.3-1.29-2.3-2.32,0-1.27,1.27-2.43,3.16-2.65-1.81-.46-2.91-1.54-2.91-3.35,0-2.29,2-4,5.51-4a8.57,8.57,0,0,1,2.29.27,3.84,3.84,0,0,1,3.62-2.86c1.6,0,2.3.94,2.3,1.91a1.61,1.61,0,0,1-1.7,1.68,1.42,1.42,0,0,1-1.54-1.43c0-.11,0-.25,0-.35-.54,0-1.08.54-1.46,1.51a3.53,3.53,0,0,1,2.11,3.32C273.73,258.35,271.79,259.81,268.28,259.81Zm3.56,6c0-.67-.57-1.1-2.13-1.1h-3.24c-1.49,0-2.19.56-2.19,1.32s.86,1.49,3.73,1.49C270.71,267.51,271.84,266.8,271.84,265.8Zm-1.92-10c0-1.7-.59-2.67-1.83-2.67s-1.73.86-1.73,2.67.62,2.65,1.86,2.65S269.92,257.62,269.92,255.81Z" transform="translate(-211.58 -206.51)"/><path class="cls-1" d="M279.92,258.81c.16,2.94,1.35,3.92,3.35,3.92a2.89,2.89,0,0,0,3-2.22h2.11c-.49,2.65-2.27,4.38-5.81,4.38-4.21,0-6.78-2.6-6.78-6.49a6.53,6.53,0,0,1,6.65-6.72c4.26,0,6.26,3,6.07,7.13Zm0-1.7h4.73c-.13-2.57-.84-3.59-2.29-3.59S280.11,254.41,279.94,257.11Z" transform="translate(-211.58 -206.51)"/><path class="cls-1" d="M304.28,246.84v2.3h-2.67v13.18h3c2.13,0,2.59-.54,3.75-5.05h2.14v7.35H294.77v-2.35h2.43V249.19h-2.43v-2.35Z" transform="translate(-211.58 -206.51)"/><path class="cls-1" d="M312.09,262.37h2.05v-8.15h-2.05V252h6v10.39h2.06v2.25h-8.05Zm1.43-14.5a2.3,2.3,0,0,1,2.4-2.35,2.26,2.26,0,0,1,2.43,2.27,2.3,2.3,0,0,1-2.43,2.32A2.2,2.2,0,0,1,313.52,247.87Z" transform="translate(-211.58 -206.51)"/><path class="cls-1" d="M322.49,248.28h-1.84V246h5.81v8.51a4.33,4.33,0,0,1,4-2.81,4.26,4.26,0,0,1,3.21,1.3,8.76,8.76,0,0,1-.08,10.56,5,5,0,0,1-7.8-1.3l-1.24,2.57h-2.08Zm8.69,10c0-2.7-.7-4.13-2.27-4.13-1.72,0-2.7,1.89-2.7,4.32s1,4.19,2.7,4.19S331.18,261.19,331.18,258.32Z" transform="translate(-211.58 -206.51)"/><path class="cls-1" d="M337,262.37h1.86v-8.15H337V252h5.56v3.24c.76-2.35,2.21-3.51,3.94-3.51a2.46,2.46,0,0,1,2.57,2.48,2.18,2.18,0,0,1-2.11,2.32,1.89,1.89,0,0,1-2.1-1.91c0-.06,0-.14,0-.22-.73.05-1.62.86-2.08,2.43v5.56h2.35v2.25H337Z" transform="translate(-211.58 -206.51)"/><path class="cls-1" d="M349.49,261.51a3.08,3.08,0,0,1,.9-2.19c.83-.83,2.13-1.37,5.23-1.78,1.49-.22,1.63-.24,1.63-.57v-1.1c0-1.62-.76-2.22-2.33-2.22a4.19,4.19,0,0,0-1.62.33,1.59,1.59,0,0,1,.65,1.37A1.77,1.77,0,0,1,352,257a1.86,1.86,0,0,1-2-1.89c0-2.33,2.89-3.43,6-3.43,3.8,0,5.15,1.78,5.15,4.4v5.75c0,.62.25.76.68.76s.59-.3.84-1.22l1.32.43c-.51,2.08-1.51,3-3.32,3a2.76,2.76,0,0,1-3-2.67h-.14a4.18,4.18,0,0,1-4.18,2.67C351.11,264.86,349.49,263.56,349.49,261.51Zm7.76-1.7v-1.24c-.25.05-.54.08-1.22.21-1.92.33-2.51,1-2.51,2.16a1.51,1.51,0,0,0,1.67,1.62C356.41,262.56,357.25,261.43,357.25,259.81Z" transform="translate(-211.58 -206.51)"/><path class="cls-1" d="M364.29,262.37h1.87v-8.15h-1.87V252h5.57v3.24c.76-2.35,2.21-3.51,3.94-3.51a2.46,2.46,0,0,1,2.57,2.48,2.18,2.18,0,0,1-2.11,2.32,1.89,1.89,0,0,1-2.11-1.91c0-.06,0-.14,0-.22-.73.05-1.62.86-2.08,2.43v5.56h2.35v2.25h-8.16Z" transform="translate(-211.58 -206.51)"/><path class="cls-1" d="M380.88,266.37a2.3,2.3,0,0,1-.22,1c1.11-.13,1.79-.65,2.57-2.54l-5.08-10.61h-1.67V252h7.91v2.24h-1.92l2.84,6.61,2.54-6.61h-1.6V252h5.54v2.24h-1.54l-4.32,10c-1.3,3.05-2.76,5.05-5.67,5.05-2.3,0-3.49-1.19-3.49-2.81a2.11,2.11,0,0,1,2.08-2.27A2,2,0,0,1,380.88,266.37Z" transform="translate(-211.58 -206.51)"/></svg>